<svg version="1.1" id="Layer_1" xmlns="http://www.w3.org/2000/svg" xmlns:xlink="http://www.w3.org/1999/xlink" x="0px"
        y="0px" viewBox="0 0 44.03 34.03" style="enable-background:new 0 0 44.03 34.03;" xml:space="preserve">
        <style type="text/css">
          .st0 {
            fill: #8F9192;
          }
        </style>
        <path class="st0" d="M42.03,19.03H6.85L18.44,30.6l0,0c0.79,0.78,0.79,2.05,0.01,2.83s-2.05,0.79-2.83,0.01c0,0-0.01-0.01-0.01-0.01
            	l-15.02-15l0,0c-0.78-0.78-0.78-2.04,0-2.83c0,0,0,0,0,0l15.02-15l0,0c0.78-0.79,2.04-0.79,2.83-0.01c0.79,0.78,0.79,2.05,0.01,2.83
            	c0,0-0.01,0.01-0.01,0.01L6.82,15.03h35.21l0,0c1.1,0,2,0.9,2,2C44.03,18.13,43.13,19.03,42.03,19.03
            	C42.03,19.03,42.03,19.03,42.03,19.03z" />
      </svg>